<svg width="96" height="96" viewBox="0 0 96 96" fill="none" xmlns="http://www.w3.org/2000/svg">
<path d="M0 48C0 21.4903 21.4903 0 48 0V0C74.5097 0 96 21.4903 96 48V48C96 74.5097 74.5097 96 48 96V96C21.4903 96 0 74.5097 0 48V48Z" fill="#BDC0C7"/>
<path d="M29.3998 44.5994C28.9517 45.047 28.5962 45.5786 28.3537 46.1637C28.1112 46.7488 27.9863 47.376 27.9863 48.0094C27.9863 48.6427 28.1112 49.2699 28.3537 49.855C28.5962 50.4401 28.9517 50.9717 29.3998 51.4194L44.5798 66.5993C45.0275 67.0475 45.559 67.4029 46.1441 67.6455C46.7293 67.888 47.3564 68.0128 47.9898 68.0128C48.6232 68.0128 49.2504 67.888 49.8355 67.6455C50.4206 67.4029 50.9522 67.0475 51.3998 66.5993L66.5798 51.4194C67.0279 50.9717 67.3834 50.4401 67.6259 49.855C67.8685 49.2699 67.9933 48.6427 67.9933 48.0094C67.9933 47.376 67.8685 46.7488 67.6259 46.1637C67.3834 45.5786 67.0279 45.047 66.5798 44.5994L51.3998 29.4194C50.9522 28.9712 50.4206 28.6158 49.8355 28.3732C49.2504 28.1307 48.6232 28.0059 47.9898 28.0059C47.3564 28.0059 46.7293 28.1307 46.1441 28.3732C45.559 28.6158 45.0275 28.9712 44.5798 29.4194L29.3998 44.5994Z" stroke="white" stroke-width="5" stroke-linecap="round" stroke-linejoin="round"/>
</svg>
