<svg width="20" height="20" viewBox="0 0 20 20" fill="none" xmlns="http://www.w3.org/2000/svg">
<path d="M16.6666 10.8331C16.6666 14.9997 13.7499 17.0831 10.2833 18.2914C10.1017 18.3529 9.90453 18.35 9.72492 18.2831C6.24992 17.0831 3.33325 14.9997 3.33325 10.8331V4.99972C3.33325 4.77871 3.42105 4.56675 3.57733 4.41047C3.73361 4.25419 3.94557 4.16639 4.16659 4.16639C5.83325 4.16639 7.91658 3.16639 9.36658 1.89972C9.54313 1.74889 9.76771 1.66602 9.99992 1.66602C10.2321 1.66602 10.4567 1.74889 10.6333 1.89972C12.0916 3.17472 14.1666 4.16639 15.8333 4.16639C16.0543 4.16639 16.2662 4.25419 16.4225 4.41047C16.5788 4.56675 16.6666 4.77871 16.6666 4.99972V10.8331Z" stroke="#3C3F45" stroke-width="1.5" stroke-linecap="round" stroke-linejoin="round"/>
<path d="M13.3334 14.1673V13.2414C13.3334 12.7503 13.1327 12.2792 12.7755 11.9319C12.4183 11.5846 11.9338 11.3895 11.4287 11.3895H8.57151C8.06634 11.3895 7.58185 11.5846 7.22464 11.9319C6.86743 12.2792 6.66675 12.7503 6.66675 13.2414V14.1673M11.9048 7.68584C11.9048 8.70859 11.0521 9.53769 10.0001 9.53769C8.94811 9.53769 8.09532 8.70859 8.09532 7.68584C8.09532 6.66309 8.94811 5.83398 10.0001 5.83398C11.0521 5.83398 11.9048 6.66309 11.9048 7.68584Z" stroke="#161F36" stroke-width="1.5" stroke-linecap="round" stroke-linejoin="round"/>
</svg>
